<svg width="68" height="63" viewBox="0 0 68 63" fill="none" xmlns="http://www.w3.org/2000/svg">
<g id="akar-icons_github-fill">
<path id="Path" fill-rule="evenodd" clip-rule="evenodd" d="M34 0C15.215 0 0 14.4528 0 32.2968C0 46.5881 9.7325 58.659 23.2475 62.9383C24.9475 63.2209 25.585 62.252 25.585 61.4042C25.585 60.6372 25.5425 58.0938 25.5425 55.3889C17 56.8827 14.79 53.4108 14.11 51.5941C13.7275 50.6655 12.07 47.7992 10.625 47.0322C9.435 46.4266 7.735 44.9329 10.5825 44.8925C13.26 44.8521 15.1725 47.234 15.81 48.2029C18.87 53.0878 23.7575 51.7152 25.7125 50.8674C26.01 48.7681 26.9025 47.3551 27.88 46.5477C20.315 45.7403 12.41 42.9547 12.41 30.6012C12.41 27.0889 13.7275 24.1822 15.895 21.9214C15.555 21.114 14.365 17.8036 16.235 13.3628C16.235 13.3628 19.0825 12.515 25.585 16.6732C28.305 15.9465 31.195 15.5832 34.085 15.5832C36.975 15.5832 39.865 15.9465 42.585 16.6732C49.0875 12.4746 51.935 13.3628 51.935 13.3628C53.805 17.8036 52.615 21.114 52.275 21.9214C54.4425 24.1822 55.76 27.0485 55.76 30.6012C55.76 42.9951 47.8125 45.7403 40.2475 46.5477C41.48 47.557 42.5425 49.4948 42.5425 52.5226C42.5425 56.8423 42.5 60.3142 42.5 61.4042C42.5 62.252 43.1375 63.2613 44.8375 62.9383C51.5868 60.7738 57.4518 56.653 61.607 51.1564C65.7621 45.6595 67.998 39.0636 68 32.2968C68 14.4528 52.785 0 34 0Z" fill="white"/>
</g>
</svg>
